<svg class="animated" id="freepik_stories-notes" xmlns="http://www.w3.org/2000/svg" xmlns:xlink="http://www.w3.org/1999/xlink" viewBox="0 0 500 500" version="1.1" xmlns:svgjs="http://svgjs.com/svgjs"><style>svg#freepik_stories-notes:not(.animated) .animable {opacity: 0;}svg#freepik_stories-notes.animated #freepik--Character--inject-78 {animation: 1.5s Infinite  linear heartbeat;animation-delay: 0s;}            @keyframes heartbeat {                0% {                    transform: scale(1);                }                10% {                    transform: scale(1.1);                }                30% {                    transform: scale(1);                }                40% {                    transform: scale(1);                }                50% {                    transform: scale(1.1);                }                60% {                    transform: scale(1);                }                100% {                    transform: scale(1);                }            }        .animator-hidden { display: none; }</style><g id="freepik--background-complete--inject-78" style="transform-origin: 236.99000358581543px 319.2699661254883px;" class="animable"><polygon points="275.49 379.03 453.4 381.45 443.75 317.53 275.49 379.03" style="fill: rgb(245, 245, 245); transform-origin: 364.4449920654297px 349.49000549316406px;" id="eljr6q2893q7" class="animable"></polygon><g id="el5f2zphckgao"><rect x="274.65" y="321.37" width="170.02" height="56.43" style="fill: rgb(235, 235, 235); transform-origin: 359.65999999999997px 349.585px; transform: rotate(-1.72deg);" class="animable" id="elo54a1ntukd"></rect></g><path d="M422,338.28c0,.15-28.46,1.12-63.58,2.17s-63.59,1.79-63.6,1.65,28.46-1.12,63.59-2.17S422,338.14,422,338.28Z" style="fill: rgb(224, 224, 224); transform-origin: 358.4099884033203px 340.1900075674057px;" id="el3s7a3h64r0b" class="animable"></path><path d="M423.35,352.9c0,.15-28.47,1.12-63.58,2.17s-63.6,1.79-63.6,1.65,28.46-1.11,63.58-2.17S423.34,352.76,423.35,352.9Z" style="fill: rgb(224, 224, 224); transform-origin: 359.760009765625px 354.8099125623703px;" id="el7cqinhqa4iw" class="animable"></path><polygon points="323.3 314.41 389.15 312.43 386.04 315.73 390.96 319.11 385.92 322.15 391.16 325.85 322.14 327.92 326 323.82 323.44 320.19 326.89 317.91 323.3 314.41" style="fill: rgb(245, 245, 245); transform-origin: 356.65000915527344px 320.1750030517578px;" id="el6xalx2tump7" class="animable"></polygon><path d="M28.53,213.57l12.71,48.18c6.06,2.07,12.25,3.81,19.86,1.83l36-10.68L79.35,197.69Z" style="fill: rgb(250, 250, 250); transform-origin: 62.81500434875488px 231.0699577331543px;" id="eldyvlv55uoot" class="animable"></path><polygon points="25.3 211.82 38.01 259.99 57.87 261.83 93.91 251.15 79.15 197 25.3 211.82" style="fill: rgb(245, 245, 245); transform-origin: 59.60499954223633px 229.4149932861328px;" id="ele1w6e6sf51l" class="animable"></polygon><path d="M43,254.58,38,260a21.37,21.37,0,0,0,8.27,2.88,30.94,30.94,0,0,0,11.59-1S48.84,261.84,43,254.58Z" style="fill: rgb(224, 224, 224); transform-origin: 47.92999839782715px 258.8120665550232px;" id="el6w7trf9sq8b" class="animable"></path><polygon points="24.93 223.7 44.08 205.39 40.26 201.35 20.58 219.5 24.93 223.7" style="fill: rgb(235, 235, 235); transform-origin: 32.33000087738037px 212.5250015258789px;" id="el5wdglhntk35" class="animable"></polygon><polygon points="88.94 206.83 64.98 195.52 62.57 200.54 86.58 212.4 88.94 206.83" style="fill: rgb(235, 235, 235); transform-origin: 75.75500106811523px 203.95999908447266px;" id="elajk3s697kv" class="animable"></polygon><path d="M77.85,215.75c0,.14-9.09,2.78-20.39,5.89S37,227.17,36.92,227s9.09-2.78,20.4-5.9S77.81,215.61,77.85,215.75Z" style="fill: rgb(224, 224, 224); transform-origin: 57.38473892211914px 221.37627601623535px;" id="el1x387wchfw7" class="animable"></path><path d="M79.71,223.18c0,.14-9.1,2.78-20.4,5.9s-20.5,5.53-20.54,5.39,9.1-2.78,20.4-5.9S79.67,223,79.71,223.18Z" style="fill: rgb(224, 224, 224); transform-origin: 59.239933013916016px 228.8232274055481px;" id="elmi3fokzpzrj" class="animable"></path><path d="M81.74,229.66c0,.14-9.09,2.78-20.4,5.9S40.85,241.09,40.81,241s9.09-2.78,20.4-5.9S81.7,229.52,81.74,229.66Z" style="fill: rgb(224, 224, 224); transform-origin: 61.27493476867676px 235.32837677001953px;" id="el31z5onrqog4" class="animable"></path><path d="M83.43,236c0,.13-9.09,2.77-20.39,5.89s-20.5,5.53-20.54,5.39,9.09-2.78,20.4-5.89S83.4,235.84,83.43,236Z" style="fill: rgb(224, 224, 224); transform-origin: 62.964935302734375px 241.63917589187622px;" id="eldgolqrhpbxf" class="animable"></path><path d="M435.77,387.27a11,11,0,0,0-7.53,4.15,19.37,19.37,0,0,0-3.65,8c-1.31,5.55-.2,12,1.53,17.45,5.9-2.31,9.38-8.78,10.94-12.17,2.47-5.36,3.67-16.55-1.29-17.39" style="fill: rgb(235, 235, 235); transform-origin: 431.608510017395px 402.0699920654297px;" id="elouj6gusla2" class="animable"></path><path d="M417.75,423.77a9.36,9.36,0,0,0,.15-9.41,12.41,12.41,0,0,0-7.67-5.79,5.26,5.26,0,0,0-4.4.35,4,4,0,0,0-1.42,3.8,8.07,8.07,0,0,0,1.83,3.8c3,3.84,6.64,7,11.51,7.25" style="fill: rgb(235, 235, 235); transform-origin: 411.7221112251282px 416.00728130340576px;" id="el7o5kol8n8zh" class="animable"></path><path d="M417.66,442.18a6.86,6.86,0,0,0,.23-1.15c.13-.82.31-1.88.52-3.16a32.86,32.86,0,0,0,.33-10.55,20.16,20.16,0,0,0-4.21-9.65,13.55,13.55,0,0,0-2.33-2.21,7.1,7.1,0,0,0-.73-.49c-.17-.11-.26-.16-.27-.14a20.45,20.45,0,0,1,3.1,3,20.7,20.7,0,0,1,4,9.53,35.57,35.57,0,0,1-.21,10.44c-.18,1.34-.31,2.43-.39,3.18A5.42,5.42,0,0,0,417.66,442.18Z" style="fill: rgb(224, 224, 224); transform-origin: 415.10871291160583px 428.50285720825195px;" id="elzk9mhat0gy" class="animable"></path><path d="M434.1,395.71a2.19,2.19,0,0,0-.22.46l-.58,1.34c-.49,1.17-1.18,2.88-2,5-1.67,4.22-3.89,10.09-6.2,16.63s-4.26,12.5-5.62,16.83c-.67,2.17-1.21,3.93-1.56,5.15-.16.58-.3,1-.4,1.41a2.31,2.31,0,0,0-.11.49,2.06,2.06,0,0,0,.19-.47l.47-1.38,1.69-5.11c1.43-4.31,3.42-10.25,5.73-16.79s4.48-12.41,6.08-16.65c.79-2.09,1.43-3.8,1.89-5l.51-1.37A1.75,1.75,0,0,0,434.1,395.71Z" style="fill: rgb(224, 224, 224); transform-origin: 425.75502014160156px 419.3649597167969px;" id="el1p2hswctg3k" class="animable"></path><path d="M424.36,429.8A21.89,21.89,0,0,1,441,418.72c1.76-.18,3.89,0,4.72,1.61s-.16,3.47-1.32,4.8a18.71,18.71,0,0,1-20.12,5.14" style="fill: rgb(235, 235, 235); transform-origin: 435.15365505218506px 424.99709939956665px;" id="el70xoag6bca" class="animable"></path><path d="M438.49,423.52a5.67,5.67,0,0,0-1.1.07,11.39,11.39,0,0,0-1.28.19c-.49.11-1.07.18-1.68.37a18.49,18.49,0,0,0-2,.62,19.7,19.7,0,0,0-2.21.92,22.51,22.51,0,0,0-8.41,6.91,20.91,20.91,0,0,0-1.32,2,16.49,16.49,0,0,0-1,1.85,14.69,14.69,0,0,0-.66,1.59,12.2,12.2,0,0,0-.4,1.23,5.34,5.34,0,0,0-.25,1.07c.09,0,.46-1.5,1.57-3.77a18.64,18.64,0,0,1,1-1.8,20.34,20.34,0,0,1,1.32-1.95,23.28,23.28,0,0,1,8.28-6.8,26.25,26.25,0,0,1,4.11-1.6C436.93,423.74,438.51,423.61,438.49,423.52Z" style="fill: rgb(224, 224, 224); transform-origin: 428.33508586883545px 431.9283981323242px;" id="eleio3v87l9yp" class="animable"></path></g><g id="freepik--Floor--inject-78" style="transform-origin: 249.99998474121094px 442.3900146484375px;" class="animable"><path d="M462.9,442.39c0,.14-95.32.26-212.89.26s-212.91-.12-212.91-.26,95.3-.26,212.91-.26S462.9,442.24,462.9,442.39Z" style="fill: rgb(38, 50, 56); transform-origin: 249.99998474121094px 442.3900146484375px;" id="elauuqg4j0p84" class="animable"></path></g><g id="freepik--Notes--inject-78" style="transform-origin: 266.4449920654297px 224.22999954223633px;" class="animable animator-hidden"><path d="M243.67,82l.43,8a6.86,6.86,0,0,1,4.39-1.91,7,7,0,0,1,.75,13.94,6.88,6.88,0,0,1-4.57-1.43l.43,8.07a6.86,6.86,0,0,1,4.39-1.91,7,7,0,0,1,.75,13.94,6.88,6.88,0,0,1-4.57-1.43l.43,8.07a6.85,6.85,0,0,1,4.39-1.9,7,7,0,0,1,.74,13.93,6.82,6.82,0,0,1-4.56-1.43l.43,8.07a6.85,6.85,0,0,1,4.39-1.9,7,7,0,0,1,.74,13.93,6.8,6.8,0,0,1-4.56-1.43l.43,8.08a6.81,6.81,0,0,1,4.39-1.91,7,7,0,0,1,.74,13.93,6.8,6.8,0,0,1-4.56-1.42l.43,8.07a6.86,6.86,0,0,1,4.39-1.91,7,7,0,0,1,.74,13.94,6.86,6.86,0,0,1-4.56-1.43l.27,5L465,193.84,454.1,68.57Z" style="fill: rgb(235, 235, 235); transform-origin: 354.33499908447266px 133.76500701904297px;" id="elkm3eiy1y4e" class="animable"></path><path d="M238.92,76.82l.43,8.05A6.86,6.86,0,0,1,243.73,83a7,7,0,0,1,.75,13.94,6.86,6.86,0,0,1-4.56-1.43l.43,8.07a7,7,0,1,1,.57,10.6l.43,8.07a6.82,6.82,0,0,1,4.38-1.9,7,7,0,0,1,.75,13.93,6.85,6.85,0,0,1-4.57-1.43l.44,8.08a6.78,6.78,0,0,1,4.38-1.91,7,7,0,0,1,.75,13.93,6.83,6.83,0,0,1-4.57-1.43l.44,8.08a6.83,6.83,0,0,1,4.38-1.91,7,7,0,0,1,.75,13.94,6.88,6.88,0,0,1-4.57-1.43l.43,8.07a6.86,6.86,0,0,1,4.39-1.91,7,7,0,0,1,.75,13.94,6.88,6.88,0,0,1-4.57-1.43l.27,5,215-11.51-6.26-117Z" style="fill: rgb(245, 245, 245); transform-origin: 349.5499954223633px 129.61502838134766px;" id="elluy2ufcbqd" class="animable"></path><path d="M455.17,88.47c0,.14-48.12,2.83-107.49,6S240.16,100.12,240.16,100s48.11-2.83,107.49-6S455.16,88.33,455.17,88.47Z" style="fill: rgb(224, 224, 224); transform-origin: 347.6650085449219px 94.23428440093994px;" id="el2k8u5olehat" class="animable"></path><path d="M456.17,107.19c0,.14-48.12,2.84-107.49,6s-107.51,5.64-107.52,5.5,48.11-2.84,107.5-6S456.16,107.05,456.17,107.19Z" style="fill: rgb(224, 224, 224); transform-origin: 348.66502380371094px 112.94000482559204px;" id="eloiiwbp88xt" class="animable"></path><path d="M457.17,125.91c0,.15-48.12,2.84-107.49,6s-107.51,5.64-107.52,5.5,48.11-2.84,107.5-6S457.16,125.77,457.17,125.91Z" style="fill: rgb(224, 224, 224); transform-origin: 349.66502380371094px 131.66000652313232px;" id="el95cy5kghdub" class="animable"></path><path d="M458.17,144.63c0,.15-48.12,2.84-107.48,6s-107.52,5.63-107.53,5.49,48.11-2.84,107.5-6S458.16,144.49,458.17,144.63Z" style="fill: rgb(224, 224, 224); transform-origin: 350.6650085449219px 150.37500095367432px;" id="elcl3p2tzyrkh" class="animable"></path><path d="M459.17,163.36c0,.14-48.12,2.83-107.48,6S244.17,175,244.16,174.86s48.12-2.83,107.5-6S459.17,163.21,459.17,163.36Z" style="fill: rgb(224, 224, 224); transform-origin: 351.6650085449219px 169.10961151123047px;" id="elu8k08tmas6" class="animable"></path><g id="el114dgaznzujr"><rect x="271.69" y="75.13" width="0.5" height="117.19" style="fill: #ED270B; transform-origin: 271.94px 133.725px; transform: rotate(-3.06deg);" class="animable" id="elt7cn2w4yuuf"></rect></g><path d="M294.55,191.2c-.14,0-1.66-26.19-3.39-58.5s-3-58.52-2.87-58.52,1.66,26.17,3.39,58.5S294.7,191.19,294.55,191.2Z" style="fill: rgb(224, 224, 224); transform-origin: 291.42133688926697px 132.68999481201172px;" id="elm46dc2uk9w" class="animable"></path><path d="M256.28,193.24c-.15,0-1.67-26.18-3.4-58.49s-3-58.52-2.87-58.53,1.67,26.18,3.39,58.5S256.42,193.24,256.28,193.24Z" style="fill: rgb(224, 224, 224); transform-origin: 253.14558959007263px 134.7300033569336px;" id="eldhgtqpet6o9" class="animable"></path><path d="M315.51,190.07c-.14,0-1.66-26.18-3.39-58.49s-3-58.52-2.87-58.53,1.66,26.18,3.39,58.5S315.66,190.07,315.51,190.07Z" style="fill: rgb(224, 224, 224); transform-origin: 312.3813564777374px 131.56000518798828px;" id="el1pdgaa4hagfi" class="animable"></path><path d="M336.48,189c-.15,0-1.66-26.18-3.39-58.49s-3-58.52-2.87-58.53,1.66,26.18,3.39,58.5S336.62,189,336.48,189Z" style="fill: rgb(224, 224, 224); transform-origin: 333.35066080093384px 130.48999786376953px;" id="elhc07mk5pqw" class="animable"></path><path d="M357.44,187.83c-.14,0-1.66-26.18-3.39-58.49s-3-58.52-2.87-58.53,1.66,26.18,3.39,58.5S357.58,187.82,357.44,187.83Z" style="fill: rgb(224, 224, 224); transform-origin: 354.31065225601196px 129.31999969482422px;" id="eltdz7zn67qzs" class="animable"></path><path d="M378.4,186.71c-.14,0-1.66-26.18-3.39-58.49s-3-58.52-2.87-58.53,1.66,26.18,3.39,58.5S378.55,186.7,378.4,186.71Z" style="fill: rgb(224, 224, 224); transform-origin: 375.2713406085968px 128.20000457763672px;" id="eltzkqle9l54g" class="animable"></path><path d="M399.37,185.59c-.15,0-1.67-26.19-3.39-58.5s-3-58.51-2.87-58.52,1.66,26.18,3.39,58.5S399.51,185.58,399.37,185.59Z" style="fill: rgb(224, 224, 224); transform-origin: 396.24067640304565px 127.07999420166016px;" id="elyi3fs9ewcu" class="animable"></path><path d="M420.33,184.47c-.14,0-1.66-26.19-3.39-58.5s-3-58.52-2.87-58.52,1.66,26.17,3.39,58.5S420.47,184.46,420.33,184.47Z" style="fill: rgb(224, 224, 224); transform-origin: 417.20063853263855px 125.95999908447266px;" id="elw63gp0hkf7k" class="animable"></path><path d="M441.29,183.34c-.14,0-1.66-26.18-3.39-58.49s-3-58.52-2.87-58.53,1.66,26.18,3.39,58.5S441.44,183.34,441.29,183.34Z" style="fill: rgb(224, 224, 224); transform-origin: 438.1613552570343px 124.82999420166016px;" id="el3wn3antwtat" class="animable"></path><path d="M438.68,112.48a1.69,1.69,0,0,1-.39,0l-1.14.08-4.4.28-16.17.93c-13.66.76-32.53,1.76-53.38,2.79s-39.73,1.89-53.4,2.41c-6.84.26-12.37.43-16.2.5s-6,0-5.92-.14a6.14,6.14,0,0,0,1.52.05c1,0,2.49-.05,4.4-.11,3.82-.13,9.35-.36,16.18-.67l53.4-2.56,53.38-2.63,16.18-.77,4.4-.18,1.15,0A2.29,2.29,0,0,1,438.68,112.48Z" style="fill: rgb(38, 50, 56); transform-origin: 363.17889404296875px 115.97807955741882px;" id="elm0027guddz9" class="animable"></path><path d="M443,133.86c0,.15-34.69,1.85-77.49,3.82S288,141.12,288,141s34.69-1.85,77.5-3.81S443,133.72,443,133.86Z" style="fill: rgb(38, 50, 56); transform-origin: 365.5px 137.42892479896545px;" id="elrq5ac9elhjj" class="animable"></path><path d="M445.33,152.58c0,.15-34.69,1.86-77.49,3.82s-77.52,3.44-77.53,3.29,34.69-1.85,77.5-3.81S445.32,152.44,445.33,152.58Z" style="fill: rgb(38, 50, 56); transform-origin: 367.8199920654297px 156.13565015792847px;" id="elx957b3p9cyn" class="animable"></path><path d="M263,89.09c.94,4.65,3,9.37,6.87,12.06A12.29,12.29,0,1,0,274.38,79" style="fill: rgb(224, 224, 224); transform-origin: 276.0729560852051px 91.03767204284668px;" id="eljn6eigpi89f" class="animable"></path><path d="M262.47,89.06a9.78,9.78,0,1,0,9.24-10.3A9.78,9.78,0,0,0,262.47,89.06Z" style="fill: rgb(69, 90, 100); transform-origin: 272.2353868484497px 88.52586269378662px;" id="eljccp00lpy6r" class="animable"></path><path d="M256.85,85.44a5.87,5.87,0,1,0,5.55-6.18A5.87,5.87,0,0,0,256.85,85.44Z" style="fill: rgb(69, 90, 100); transform-origin: 262.71146965026855px 85.12173986434937px;" id="elev1pwnxvi7" class="animable"></path><path d="M262.32,90.87a10,10,0,0,0,2.2-.25,5.63,5.63,0,0,0,3.74-3.42,6,6,0,0,0-.63-5.06,11.58,11.58,0,0,0-1.46-1.69s.23.06.56.28a4.8,4.8,0,0,1,1.2,1.2,6.08,6.08,0,0,1,.82,5.44,5.6,5.6,0,0,1-1.84,2.52,5.78,5.78,0,0,1-2.3,1.09,4.61,4.61,0,0,1-1.7.07C262.52,91,262.31,90.9,262.32,90.87Z" style="fill: rgb(38, 50, 56); transform-origin: 265.6890788078308px 85.77400732040405px;" id="el752a1nguhy4" class="animable"></path><path d="M267.23,81.53a6.35,6.35,0,0,0,6.46-1.48c.05,0-.12.42-.6.9a4.82,4.82,0,0,1-4.92,1.13C267.53,81.86,267.2,81.59,267.23,81.53Z" style="fill: rgb(38, 50, 56); transform-origin: 270.4632499217987px 81.19151329994202px;" id="el1x680vyxdl1" class="animable"></path><path d="M268.74,96.4a7.54,7.54,0,0,1-.42-1.19,6.31,6.31,0,0,0-4.13-3.9c-.72-.23-1.21-.27-1.2-.35s.5-.15,1.29,0a5.65,5.65,0,0,1,4.39,4.14C268.86,95.89,268.81,96.39,268.74,96.4Z" style="fill: rgb(38, 50, 56); transform-origin: 265.89622020721436px 93.63591718673706px;" id="elh57qt0arzwl" class="animable"></path><path d="M428.26,82.19c.95,4.65,3,9.36,6.87,12a12.29,12.29,0,0,0,18-15.53,12.67,12.67,0,0,0-13.49-6.63" style="fill: rgb(224, 224, 224); transform-origin: 441.32047748565674px 84.08979511260986px;" id="elfbpn0cc8qid" class="animable"></path><path d="M447.15,79.54a9.45,9.45,0,1,1-9.94-8.94A9.45,9.45,0,0,1,447.15,79.54Z" style="fill: #ED270B; transform-origin: 437.71307277679443px 80.03660202026367px;" id="el4mgvwsxgolp" class="animable"></path><circle cx="446.52" cy="75.79" r="5.67" style="fill: #ED270B; transform-origin: 446.52px 75.79px;" id="el5vh3ksoutyd" class="animable"></circle><path d="M447.49,81.26s-.18.14-.56.24a4.41,4.41,0,0,1-1.64.11,5.55,5.55,0,0,1-2.32-.8,5.42,5.42,0,0,1-2-2.24,5.88,5.88,0,0,1,.22-5.31,3.48,3.48,0,0,1,1.55-1.61,12.8,12.8,0,0,0-1.22,1.78,5.79,5.79,0,0,0-.08,4.92,5.46,5.46,0,0,0,3.93,2.9A9.94,9.94,0,0,0,447.49,81.26Z" style="fill: rgb(38, 50, 56); transform-origin: 443.9654150009155px 76.64598655700684px;" id="elyik2sb9duw" class="animable"></path><path d="M441.8,72.8s-.25.35-.84.63a4.64,4.64,0,0,1-4.85-.58c-.51-.41-.71-.77-.66-.81a8.53,8.53,0,0,0,3.07,1.27A8.89,8.89,0,0,0,441.8,72.8Z" style="fill: rgb(38, 50, 56); transform-origin: 438.62125754356384px 72.95136153697968px;" id="elld3oy1lcthf" class="animable"></path><path d="M441.88,87.24a2.1,2.1,0,0,1-.07-1.25,5.5,5.5,0,0,1,1.26-2.77,5.39,5.39,0,0,1,2.53-1.67c.76-.23,1.25-.19,1.25-.13s-.45.18-1.12.47a6.17,6.17,0,0,0-3.56,4.17C442,86.77,442,87.24,441.88,87.24Z" style="fill: rgb(38, 50, 56); transform-origin: 444.29821395874023px 84.30675220489502px;" id="el9plwurzf2o" class="animable"></path><path d="M94.32,61.83,72.63,170.47c10.07,10.07,20.74,19.58,37.88,23.08l82.42,13.87L211.34,79.77Z" style="fill: rgb(224, 224, 224); transform-origin: 141.98499298095703px 134.625px;" id="elttlwuquw79" class="animable"></path><polygon points="89.58 55.17 67.89 163.81 105.77 186.89 188.19 200.76 211.61 78.18 89.58 55.17" style="fill: #ED270B; transform-origin: 139.75px 127.96499633789062px;" id="eljti0k5t1gzd" class="animable"></polygon><path d="M83.19,157.91l-15.3,5.9s5.61,9,13.72,13.82a68.68,68.68,0,0,0,24.16,9.26S87.73,178.08,83.19,157.91Z" style="fill: #ED270B; transform-origin: 86.83000183105469px 172.4000015258789px;" id="elcqdnr0886qg" class="animable"></path><g id="elefmgfg26r6e"><g style="opacity: 0.30000000000000004; transform-origin: 86.83000183105469px 172.4000015258789px;" class="animable" id="el24yj9b9m0qv"><path d="M83.19,157.91c-5.9,4-12.38,9-15.3,5.9,0,0,5.61,9,13.72,13.82a68.68,68.68,0,0,0,24.16,9.26S87.73,178.08,83.19,157.91Z" id="elf4uvbpg8p59" style="transform-origin: 86.83000183105469px 172.4000015258789px;" class="animable"></path></g></g><polygon points="77.24 78.55 133.37 60.69 129.69 48.87 72.63 65.91 77.24 78.55" style="fill: rgb(224, 224, 224); transform-origin: 102.99999618530273px 63.71000099182129px;" id="elnm1st2bodo" class="animable"></polygon><polygon points="221.56 107.38 184.76 61.39 175.04 69.06 211.41 116.22 221.56 107.38" style="fill: rgb(224, 224, 224); transform-origin: 198.29999542236328px 88.80500030517578px;" id="elbwy793jx7j" class="animable"></polygon><path d="M190.7,114.37c0,.14-20.82-3.65-46.44-8.47s-46.37-8.84-46.34-9,20.81,3.65,46.44,8.47S190.73,114.23,190.7,114.37Z" style="fill: rgb(38, 50, 56); transform-origin: 144.31000137329102px 105.63445091247559px;" id="elpi504l0egsa" class="animable"></path><path d="M187.15,131c0,.14-20.82-3.65-46.44-8.47s-46.37-8.84-46.35-9,20.82,3.65,46.44,8.47S187.17,130.89,187.15,131Z" style="fill: rgb(38, 50, 56); transform-origin: 140.7549934387207px 122.26444816589355px;" id="el7c0kfc02bk" class="animable"></path><path d="M184.87,146c0,.14-20.82-3.65-46.43-8.47s-46.38-8.84-46.35-9,20.82,3.65,46.44,8.47S184.9,145.82,184.87,146Z" style="fill: rgb(38, 50, 56); transform-origin: 138.4800033569336px 137.26444053649902px;" id="eleb2ltcbweeg" class="animable"></path><path d="M182.09,160.22c0,.14-20.82-3.65-46.44-8.47s-46.37-8.84-46.34-9,20.81,3.65,46.44,8.47S182.12,160.08,182.09,160.22Z" style="fill: rgb(38, 50, 56); transform-origin: 135.70000076293945px 151.48444175720215px;" id="elnpb1zxxmye9" class="animable"></path><polygon points="269.45 276.29 445.24 298.7 442.88 234.36 269.45 276.29" style="fill: rgb(224, 224, 224); transform-origin: 357.3450012207031px 266.5300064086914px;" id="el7frjherabu9" class="animable"></polygon><g id="el8nq1vb9lye"><rect x="271.39" y="228.51" width="169.34" height="56.2" style="fill: rgb(69, 90, 100); transform-origin: 356.06px 256.61px; transform: rotate(4.77deg);" class="animable" id="el07rutbwwvwyh"></rect></g><path d="M419,252.45c0,.14-28.29-2.1-63.16-5s-63.13-5.38-63.12-5.53,28.29,2.1,63.17,5S419.05,252.31,419,252.45Z" style="fill: rgb(38, 50, 56); transform-origin: 355.86003494262695px 247.1845703125px;" id="el0sdotzwyjct" class="animable"></path><path d="M418.71,267.07c0,.14-28.29-2.1-63.16-5s-63.14-5.38-63.12-5.53,28.28,2.1,63.16,5S418.72,266.93,418.71,267.07Z" style="fill: rgb(38, 50, 56); transform-origin: 355.5699996948242px 261.8045816421509px;" id="el75h4brh2aif" class="animable"></path><polygon points="324.04 217.71 389.43 223.17 385.98 226.09 390.46 229.99 385.13 232.43 389.9 236.67 321.37 230.95 325.65 227.34 323.52 223.46 327.2 221.59 324.04 217.71" style="fill: rgb(235, 235, 235); transform-origin: 355.9149932861328px 227.19000244140625px;" id="eleojqacxtkd" class="animable"></polygon><path d="M243.45,235.07a7.59,7.59,0,1,1-13.06,0h-8.8a7.59,7.59,0,1,1-13.06,0h-8.8a7.59,7.59,0,1,1-13.06,0h-8.8a7.59,7.59,0,1,1-13.06,0H156a7.59,7.59,0,1,1-13.06,0h-8.8a7.59,7.59,0,1,1-13.06,0h-5.51v157l137.33,7.52-6.55-164.51Z" style="fill: rgb(224, 224, 224); transform-origin: 184.23499298095703px 317.3300018310547px;" id="el27b52nz4k2a" class="animable"></path><g style="clip-path: url(&quot;#freepik--clip-path--inject-78&quot;); transform-origin: 189.90499877929688px 309.2449951171875px;" id="el6j45vsjjze6" class="animable"><path d="M241.45,230.78a7.6,7.6,0,1,1-13,0h-8.81a7.59,7.59,0,1,1-14.12,3.86,7.46,7.46,0,0,1,1.07-3.86h-8.81a7.59,7.59,0,1,1-14.12,3.86,7.46,7.46,0,0,1,1.07-3.86h-8.81a7.59,7.59,0,1,1-13.06,0H154a7.59,7.59,0,1,1-13.06,0h-8.8a7.59,7.59,0,1,1-13.06,0h-5.51v157H244.36v-157Z" style="fill: rgb(245, 245, 245); transform-origin: 178.96500396728516px 309.27999114990234px;" id="elvtuyu4gu5dq" class="animable"></path><path d="M105.6,395c-.14,0-.65-38.05-1.13-85s-.75-85-.6-85,.64,38,1.12,85S105.75,395,105.6,395Z" style="fill: rgb(224, 224, 224); transform-origin: 104.73454642295837px 310px;" id="elksya7xhkoa" class="animable"></path><path d="M126.59,394.78c-.14,0-.64-38-1.12-85s-.76-85-.61-85,.65,38,1.13,85S126.74,394.78,126.59,394.78Z" style="fill: rgb(224, 224, 224); transform-origin: 125.72544771432877px 309.7799987792969px;" id="el6wlu18lrp43" class="animable"></path><path d="M137,394.78c-.14,0-.65-38-1.13-85s-.75-85-.61-85,.65,38,1.13,85S137.16,394.78,137,394.78Z" style="fill: rgb(224, 224, 224); transform-origin: 136.1336727142334px 309.7799987792969px;" id="elj64uz4ng1q" class="animable"></path><path d="M158.23,394.78c-.14,0-.64-38-1.12-85s-.76-85-.61-85,.65,38,1.13,85S158.38,394.78,158.23,394.78Z" style="fill: rgb(224, 224, 224); transform-origin: 157.36545193195343px 309.7799987792969px;" id="eldb0y6ygaw16" class="animable"></path><path d="M179.45,394.78c-.14,0-.65-38-1.13-85s-.75-85-.61-85,.65,38,1.13,85S179.59,394.78,179.45,394.78Z" style="fill: rgb(224, 224, 224); transform-origin: 178.58000069856644px 309.7799987792969px;" id="el0dpnj04aktw9" class="animable"></path><path d="M200.66,394.78c-.14,0-.65-38-1.13-85s-.75-85-.6-85,.65,38,1.13,85S200.81,394.78,200.66,394.78Z" style="fill: rgb(224, 224, 224); transform-origin: 199.7950005531311px 309.7799987792969px;" id="ele0pklq1c3am" class="animable"></path><path d="M220.79,394.78c-.14,0-.65-38-1.13-85s-.75-85-.6-85,.64,38,1.12,85S220.94,394.78,220.79,394.78Z" style="fill: rgb(224, 224, 224); transform-origin: 219.92454022169113px 309.7799987792969px;" id="el4hh38edq2qj" class="animable"></path><path d="M240.92,394.78c-.14,0-.65-38-1.13-85s-.75-85-.6-85,.65,38,1.13,85S241.07,394.78,240.92,394.78Z" style="fill: rgb(224, 224, 224); transform-origin: 240.05499792099px 309.7799987792969px;" id="eldost76zvsmw" class="animable"></path><path d="M147.59,394.57c-.15,0-.65-38.05-1.13-85s-.75-85-.61-85,.65,38,1.13,85S147.73,394.57,147.59,394.57Z" style="fill: rgb(224, 224, 224); transform-origin: 146.72000008821487px 309.57000732421875px;" id="el8yet6foesoi" class="animable"></path><path d="M168.58,394.35c-.15,0-.65-38-1.13-85s-.75-85-.61-85,.65,38,1.13,85S168.72,394.35,168.58,394.35Z" style="fill: rgb(224, 224, 224); transform-origin: 167.71000558137894px 309.3500061035156px;" id="el63nl6brf6ub" class="animable"></path><path d="M189.57,394.14c-.14,0-.65-38.05-1.13-85s-.75-85-.61-85,.65,38,1.13,85S189.71,394.14,189.57,394.14Z" style="fill: rgb(224, 224, 224); transform-origin: 188.700011074543px 309.1400146484375px;" id="elsh4mf9pybdr" class="animable"></path><path d="M210.56,393.92c-.14,0-.65-38-1.13-85s-.75-85-.61-85,.65,38,1.13,85S210.71,393.92,210.56,393.92Z" style="fill: rgb(224, 224, 224); transform-origin: 209.69182413816452px 308.9200134277344px;" id="el4hgk86hgj4n" class="animable"></path><path d="M230.69,395c-.15,0-.65-38.05-1.13-85s-.76-85-.61-85,.65,38,1.13,85S230.83,395,230.69,395Z" style="fill: rgb(224, 224, 224); transform-origin: 229.81817936897278px 310px;" id="elpvthcz8gg6e" class="animable"></path><path d="M252.55,393.49c-.15,0-.65-38-1.13-85s-.76-85-.61-85,.65,38,1.13,85S252.69,393.49,252.55,393.49Z" style="fill: rgb(224, 224, 224); transform-origin: 251.67817997932434px 308.489990234375px;" id="elzf5tpizsvh" class="animable"></path><path d="M275.07,373.58c0,.14-38,.64-85,1.11s-85,.73-85,.59,38-.64,85-1.11S275.07,373.43,275.07,373.58Z" style="fill: rgb(224, 224, 224); transform-origin: 190.07000732421875px 374.42812544107437px;" id="elrmpylm1j2w" class="animable"></path><path d="M276,384.31c0,.15-38,.64-85,1.11s-85,.73-85,.59,38-.64,85-1.11S276,384.17,276,384.31Z" style="fill: rgb(224, 224, 224); transform-origin: 191px 385.15998190641403px;" id="elfursgmb1fnu" class="animable"></path><path d="M274.86,352.59c0,.14-38.05.64-85,1.11s-85,.73-85,.58,38-.64,85-1.11S274.86,352.44,274.86,352.59Z" style="fill: rgb(224, 224, 224); transform-origin: 189.8599853515625px 353.43497681617737px;" id="elwgrmte3v1dq" class="animable"></path><path d="M274.65,331.59c0,.15-38,.64-85,1.11s-85,.74-85,.59,38-.64,85-1.11S274.65,331.45,274.65,331.59Z" style="fill: rgb(224, 224, 224); transform-origin: 189.64999389648438px 332.4418222308159px;" id="eltovlm7ihsjl" class="animable"></path><path d="M274.44,310.6c0,.15-38.05.64-85,1.11s-85,.73-85,.59,38-.64,85-1.11S274.44,310.46,274.44,310.6Z" style="fill: rgb(224, 224, 224); transform-origin: 189.44000244140625px 311.4499960541725px;" id="elp1ojujfigx7" class="animable"></path><path d="M274.23,289.61c0,.14-38.05.64-85,1.11s-85,.73-85,.59,38-.64,85-1.11S274.23,289.47,274.23,289.61Z" style="fill: rgb(224, 224, 224); transform-origin: 189.23001098632812px 290.4599696993828px;" id="el0kmtz4u596vd" class="animable"></path><path d="M274,268.62c0,.14-38,.64-85,1.11s-85,.73-85,.59,38-.64,85-1.11S274,268.47,274,268.62Z" style="fill: rgb(224, 224, 224); transform-origin: 189px 269.46813398599625px;" id="el5ifhlqy74dg" class="animable"></path><path d="M273.81,247.63c0,.14-38,.64-85,1.11s-85,.73-85,.58,38-.64,85-1.1S273.81,247.48,273.81,247.63Z" style="fill: rgb(224, 224, 224); transform-origin: 188.80999755859375px 248.47590517997742px;" id="elzul6t1xxjb9" class="animable"></path><path d="M273.81,239.22c0,.14-38,.64-85,1.11s-85,.73-85,.59,38-.64,85-1.11S273.81,239.07,273.81,239.22Z" style="fill: rgb(224, 224, 224); transform-origin: 188.80999755859375px 240.0681627392769px;" id="elbkatbwn56q" class="animable"></path><path d="M273.81,258.35c0,.15-38,.64-85,1.11s-85,.73-85,.59,38-.64,85-1.11S273.81,258.21,273.81,258.35Z" style="fill: rgb(224, 224, 224); transform-origin: 188.80999755859375px 259.1999960541725px;" id="elzw4388gd8ep" class="animable"></path><path d="M273.81,279.18c0,.14-38,.64-85,1.11s-85,.73-85,.58,38-.64,85-1.1S273.81,279,273.81,279.18Z" style="fill: rgb(224, 224, 224); transform-origin: 188.80999755859375px 280.02024310827255px;" id="eljlvjriknvzp" class="animable"></path><path d="M273.81,300c0,.14-38,.64-85,1.11s-85,.73-85,.59,38-.64,85-1.11S273.81,299.86,273.81,300Z" style="fill: rgb(224, 224, 224); transform-origin: 188.80999755859375px 300.8499899506569px;" id="elqxb87d3u32" class="animable"></path><path d="M273.81,320.83c0,.14-38,.64-85,1.1s-85,.74-85,.59,38-.64,85-1.11S273.81,320.68,273.81,320.83Z" style="fill: rgb(224, 224, 224); transform-origin: 188.80999755859375px 321.6740807890892px;" id="el6gpd74l8bx" class="animable"></path><path d="M273.81,341.65c0,.14-38,.64-85,1.11s-85,.73-85,.59,38-.64,85-1.11S273.81,341.51,273.81,341.65Z" style="fill: rgb(224, 224, 224); transform-origin: 188.80999755859375px 342.49997824430466px;" id="el3oxsq5oz5bc" class="animable"></path><path d="M273.81,362.47c0,.15-38,.64-85,1.11s-85,.74-85,.59,38-.64,85-1.11S273.81,362.33,273.81,362.47Z" style="fill: rgb(224, 224, 224); transform-origin: 188.80999755859375px 363.321832716465px;" id="el5oe6a7gb23w" class="animable"></path><path d="M241.45,230.78a7.6,7.6,0,1,1-13,0h-8.81a7.59,7.59,0,1,1-14.12,3.86,7.46,7.46,0,0,1,1.07-3.86h-8.81a7.59,7.59,0,1,1-14.12,3.86,7.46,7.46,0,0,1,1.07-3.86h-8.81a7.59,7.59,0,1,1-13.06,0H154a7.59,7.59,0,1,1-13.06,0h-8.8a7.59,7.59,0,1,1-13.06,0h-5.51v157H244.36v-157Z" style="fill: none; transform-origin: 178.96500396728516px 309.27999114990234px;" id="elp3gf9h08o9" class="animable"></path></g><path d="M170,253.52c.94,4.64,3,9.36,6.87,12a12.29,12.29,0,1,0,4.52-22.16" style="fill: rgb(224, 224, 224); transform-origin: 183.06852054595947px 255.4015302658081px;" id="elytjlkmpnvdp" class="animable"></path><path d="M169.75,253.48A9.78,9.78,0,1,0,179,243.19,9.78,9.78,0,0,0,169.75,253.48Z" style="fill: #ED270B; transform-origin: 179.51597213745117px 252.95636463165283px;" id="elsrx4ev46zom" class="animable"></path><path d="M164.13,249.86a5.87,5.87,0,1,0,5.55-6.17A5.87,5.87,0,0,0,164.13,249.86Z" style="fill: #ED270B; transform-origin: 169.9918932914734px 249.55168294906616px;" id="el2izcfn2faln" class="animable"></path><path d="M169.6,255.29a10,10,0,0,0,2.2-.25,5.63,5.63,0,0,0,3.74-3.42,6,6,0,0,0-.64-5.06,11.91,11.91,0,0,0-1.45-1.69,1.38,1.38,0,0,1,.56.28,4.86,4.86,0,0,1,1.2,1.21,6.07,6.07,0,0,1,.82,5.44,5.71,5.71,0,0,1-1.84,2.52,5.89,5.89,0,0,1-2.3,1.08,4.61,4.61,0,0,1-1.7.07C169.8,255.41,169.59,255.32,169.6,255.29Z" style="fill: rgb(38, 50, 56); transform-origin: 172.9696102142334px 250.19400644302368px;" id="elmn3vt44uwa" class="animable"></path><path d="M174.51,246a8.66,8.66,0,0,0,3.44.17,8.79,8.79,0,0,0,3-1.65c.05,0-.13.43-.6.91a4.86,4.86,0,0,1-2.3,1.25,4.73,4.73,0,0,1-2.62-.13C174.81,246.28,174.48,246,174.51,246Z" style="fill: rgb(38, 50, 56); transform-origin: 177.73309206962585px 245.66303622722626px;" id="elm1sc3fpu6c" class="animable"></path><path d="M176,260.82c-.08,0-.15-.47-.42-1.18a6.71,6.71,0,0,0-1.6-2.44,6.51,6.51,0,0,0-2.53-1.46c-.72-.23-1.21-.28-1.2-.36s.49-.15,1.29,0a5.69,5.69,0,0,1,4.39,4.14C176.14,260.31,176.09,260.82,176,260.82Z" style="fill: rgb(38, 50, 56); transform-origin: 173.16373372077942px 258.05592155456543px;" id="elkd0te2tm2ai" class="animable"></path><path d="M229.7,286.86c0,.15-20.87.26-46.6.26s-46.61-.11-46.61-.26,20.86-.26,46.61-.26S229.7,286.72,229.7,286.86Z" style="fill: rgb(38, 50, 56); transform-origin: 183.09500122070312px 286.8599853515625px;" id="ely14t2z8rale" class="animable"></path><path d="M229.7,296.55c0,.14-20.87.26-46.6.26s-46.61-.12-46.61-.26,20.86-.26,46.61-.26S229.7,296.41,229.7,296.55Z" style="fill: rgb(38, 50, 56); transform-origin: 183.09500122070312px 296.54998779296875px;" id="elrni62o0upu" class="animable"></path><path d="M229.7,306.24c0,.14-20.87.26-46.6.26s-46.61-.12-46.61-.26,20.86-.26,46.61-.26S229.7,306.1,229.7,306.24Z" style="fill: rgb(38, 50, 56); transform-origin: 183.09500122070312px 306.239990234375px;" id="elie8n08xt6u8" class="animable"></path><path d="M229.7,315.93c0,.14-20.87.26-46.6.26s-46.61-.12-46.61-.26,20.86-.26,46.61-.26S229.7,315.79,229.7,315.93Z" style="fill: rgb(38, 50, 56); transform-origin: 183.09500122070312px 315.92999267578125px;" id="els4rirrfhr1" class="animable"></path><path d="M229.7,325.62c0,.14-20.87.26-46.6.26s-46.61-.12-46.61-.26,20.86-.26,46.61-.26S229.7,325.48,229.7,325.62Z" style="fill: rgb(38, 50, 56); transform-origin: 183.09500122070312px 325.6199951171875px;" id="el63nq3fle96w" class="animable"></path><path d="M229.7,335.31c0,.14-20.87.26-46.6.26s-46.61-.12-46.61-.26,20.86-.26,46.61-.26S229.7,335.16,229.7,335.31Z" style="fill: rgb(38, 50, 56); transform-origin: 183.09500122070312px 335.30999755859375px;" id="eli954e9ey5p" class="animable"></path><path d="M229.7,345c0,.14-20.87.26-46.6.26s-46.61-.12-46.61-.26,20.86-.26,46.61-.26S229.7,344.85,229.7,345Z" style="fill: rgb(38, 50, 56); transform-origin: 183.09500122070312px 345px;" id="ela0ncfn5do4a" class="animable"></path></g><g id="freepik--Character--inject-78" style="transform-origin: 308.5578918457031px 349.16712951660156px;" class="animable"><path d="M346.24,441.66c24.14-8,7.59-39.93,7.59-39.93l-105.52,9.93a15.26,15.26,0,0,0-15.37,15.26h0a15.27,15.27,0,0,0,15.27,15.27l98-.53" style="fill: rgb(38, 50, 56); transform-origin: 296.152099609375px 421.9600067138672px;" id="el88j688qnelf" class="animable"></path><path d="M370.94,441.63c23.53-7.94,7.31-39.9,7.31-39.9l-102.86,9.69c-10,.13-14.95,5-14.95,15.23h0c0,8.43,3.13,15.54,14.92,15.3l95.58-.32" style="fill: rgb(38, 50, 56); transform-origin: 322.06940841674805px 421.8429641723633px;" id="elr392t0ec04q" class="animable"></path><path d="M347.06,407.12h-.29l-.86,0-3.29.14-12.1.6-39.92,2.19c-2,.09-3.87.26-5.77.28s-3.78.11-5.62.22-3.65.25-5.41.44a19.82,19.82,0,0,0-5.15,1.06,12.46,12.46,0,0,0-4.28,2.74,11.45,11.45,0,0,0-2.59,4.16,20.93,20.93,0,0,0-1.06,4.5,31.5,31.5,0,0,0-.28,4.26,18.1,18.1,0,0,0,1.36,7.16,11.65,11.65,0,0,0,3.2,4.36,8.42,8.42,0,0,0,2.91,1.64c.73.23.74.16,0-.1a9.17,9.17,0,0,1-2.81-1.71,11.72,11.72,0,0,1-3.06-4.32,17.87,17.87,0,0,1-1.26-7,32.68,32.68,0,0,1,.32-4.2,20.32,20.32,0,0,1,1.06-4.39,11.07,11.07,0,0,1,2.5-4,12.05,12.05,0,0,1,4.13-2.61,19.11,19.11,0,0,1,5-1c1.75-.18,3.55-.31,5.39-.42s3.7-.18,5.6-.21,3.83-.2,5.78-.29l39.92-2.35,12.09-.78,3.29-.24.85-.07A1,1,0,0,0,347.06,407.12Z" style="fill: rgb(69, 90, 100); transform-origin: 303.74897384643555px 424.0646171569824px;" id="elj6e3ug95pqi" class="animable"></path><path d="M370.29,417.19a2.56,2.56,0,0,1-.83.42,8.6,8.6,0,0,1-2.5.51A9.76,9.76,0,0,1,356.5,407.4a8.83,8.83,0,0,1,.57-2.49c.23-.56.41-.84.44-.82a17.38,17.38,0,0,0-.61,3.33,9.67,9.67,0,0,0,10,10.3A17.35,17.35,0,0,0,370.29,417.19Z" style="fill: rgb(69, 90, 100); transform-origin: 363.3698797225952px 411.11896276474px;" id="elgohocgh67sl" class="animable"></path><path d="M339.31,315.07c-13.09,1.47-15.21,10.36-21.31,19.11l-8.83,16.29,16.23,9.95-.56,25-6.64,22.12,61.13-3.45-6.81-21,8.14-32.1c.62-4.38,2.3-12.51,1.16-16.82-3.56-13.45-17.54-17.38-27.16-19.88-2-.51-11.56-.48-13.22-.08" style="fill: #ED270B; transform-origin: 345.6886100769043px 360.72425079345703px;" id="elntm59ug8grs" class="animable"></path><path d="M332.41,383.48a3,3,0,0,1,2.24.47,4.39,4.39,0,0,1,1.74,1.86,4.23,4.23,0,0,1,.22,3.11,4.3,4.3,0,0,1-1.89,2.48,4.35,4.35,0,0,1-2.48.58,3,3,0,0,1-2.13-.83,6.94,6.94,0,0,0,2.14.47,4.35,4.35,0,0,0,2.22-.63,4,4,0,0,0,1.49-5,4.27,4.27,0,0,0-1.5-1.74A6.83,6.83,0,0,0,332.41,383.48Z" style="fill: rgb(250, 250, 250); transform-origin: 333.45874762535095px 387.70945739746094px;" id="el14ktr9vex6n" class="animable"></path><path d="M347,356.48c0,.1,6.24,2.27,14,4.84s14.1,4.58,14.14,4.48-6.24-2.27-14-4.85S347,356.38,347,356.48Z" style="fill: rgb(38, 50, 56); transform-origin: 361.0701026916504px 361.14000511169434px;" id="el1thjvehvxhm" class="animable"></path><g id="elssyi89syvr8"><g style="opacity: 0.30000000000000004; transform-origin: 354.48500061035156px 385.40087699890137px;" class="animable" id="el22t2da2y5qp"><path d="M372.12,369.9a122.56,122.56,0,0,1-4.51,15.67,33.8,33.8,0,0,1-4.93,9.05,22.86,22.86,0,0,1-11.83,7.22,37.42,37.42,0,0,1-14,.69L360.1,389.4l6.18-21.49Z" id="el1rs3njv61uz" style="transform-origin: 354.48500061035156px 385.40087699890137px;" class="animable"></path></g></g><path d="M324.85,384.74A10.33,10.33,0,0,0,325,383c.06-1.24.14-2.87.23-4.84.18-4.09.38-9.75.57-16s.33-11.91.4-16c0-2,0-3.61.06-4.85a10.6,10.6,0,0,0-.06-1.79,11.21,11.21,0,0,0-.16,1.78c-.06,1.24-.14,2.87-.24,4.84-.17,4.09-.38,9.75-.56,16s-.33,11.9-.41,16c0,2,0,3.6-.05,4.85A11.33,11.33,0,0,0,324.85,384.74Z" style="fill: rgb(38, 50, 56); transform-origin: 325.522950053215px 362.12998962402344px;" id="eln5sawprbcy" class="animable"></path><path d="M311.55,346.14a59.62,59.62,0,0,0,6.85,4.35,60.05,60.05,0,0,0,7.14,3.87,57.3,57.3,0,0,0-6.85-4.36A56.58,56.58,0,0,0,311.55,346.14Z" style="fill: rgb(38, 50, 56); transform-origin: 318.54498291015625px 350.2499694824219px;" id="el7wsfja5y5i4" class="animable"></path><path d="M342.1,336a3,3,0,0,1-1.89,1.3,4.35,4.35,0,0,1-5.45-5.07A4.4,4.4,0,0,1,336,330a3,3,0,0,1,2.07-1,6.93,6.93,0,0,0-1.81,1.23,4.24,4.24,0,0,0-1.07,2,3.94,3.94,0,0,0,.48,2.72,3.88,3.88,0,0,0,2.11,1.79,4.36,4.36,0,0,0,2.3.11A7,7,0,0,0,342.1,336Z" style="fill: rgb(250, 250, 250); transform-origin: 338.3843231201172px 333.2331886291504px;" id="elwbih7dcgizg" class="animable"></path><path d="M329.23,353.22a3,3,0,0,1-.54-2.23,4.34,4.34,0,0,1,6.68-3.28,4.43,4.43,0,0,1,1.6,2,3,3,0,0,1,.17,2.28,6.77,6.77,0,0,0-.51-2.13,4.31,4.31,0,0,0-1.52-1.73,4.08,4.08,0,0,0-5.14.81,4.29,4.29,0,0,0-.92,2.11A6.57,6.57,0,0,0,329.23,353.22Z" style="fill: rgb(250, 250, 250); transform-origin: 332.9715733528137px 350.1176104545593px;" id="el5plyb4un6vi" class="animable"></path><path d="M329.23,375.29a3,3,0,0,1-.54-2.23,4.34,4.34,0,0,1,6.68-3.28,4.43,4.43,0,0,1,1.6,2,3,3,0,0,1,.17,2.28,6.77,6.77,0,0,0-.51-2.13,4.31,4.31,0,0,0-1.52-1.73A4.08,4.08,0,0,0,330,371a4.29,4.29,0,0,0-.92,2.11A6.57,6.57,0,0,0,329.23,375.29Z" style="fill: rgb(250, 250, 250); transform-origin: 332.9715790748596px 372.18764424324036px;" id="eljhszjvwmok" class="animable"></path><path d="M348.53,347.77a3,3,0,0,1-2.14-.81,4.38,4.38,0,0,1-1.45-2.09,4.3,4.3,0,0,1,.25-3.11,4.35,4.35,0,0,1,2.25-2.17,4.47,4.47,0,0,1,2.54-.2,3,3,0,0,1,2,1.14,7.23,7.23,0,0,0-2-.78,4.22,4.22,0,0,0-2.29.29,4,4,0,0,0-2.22,4.69,4.29,4.29,0,0,0,1.23,1.95A6.65,6.65,0,0,0,348.53,347.77Z" style="fill: rgb(250, 250, 250); transform-origin: 348.36955308914185px 343.5313563346863px;" id="el75k9wd08jko" class="animable"></path><path d="M340.7,356.59a3,3,0,0,1,1.37,1.84,4.3,4.3,0,0,1-7.12,4.42,3,3,0,0,1-1.05-2,6.72,6.72,0,0,0,1.3,1.77,4.23,4.23,0,0,0,2.08,1,4.05,4.05,0,0,0,4.41-2.74,4.32,4.32,0,0,0,0-2.31A6.43,6.43,0,0,0,340.7,356.59Z" style="fill: rgb(250, 250, 250); transform-origin: 338.1006097793579px 360.3548803329468px;" id="elc7azfxvjeth" class="animable"></path><path d="M324.82,326.63a2.94,2.94,0,0,1,2.24.47,4.43,4.43,0,0,1,1.75,1.85,4.31,4.31,0,0,1-4.16,6.18,3,3,0,0,1-2.13-.83,7.15,7.15,0,0,0,2.14.46,4.24,4.24,0,0,0,2.22-.62,4,4,0,0,0,1.65-2.22,4,4,0,0,0-.16-2.76,4.2,4.2,0,0,0-1.5-1.74A6.51,6.51,0,0,0,324.82,326.63Z" style="fill: rgb(250, 250, 250); transform-origin: 325.88062930107117px 330.85729360580444px;" id="el2dqhlucuh14" class="animable"></path><path d="M352.38,353.14a3,3,0,0,1-.31-2.27,4.47,4.47,0,0,1,1.15-2.27,4.38,4.38,0,0,1,2.86-1.26,4.23,4.23,0,0,1,4.36,3.08,3,3,0,0,1-.06,2.29,6.9,6.9,0,0,0-.29-2.18,4.26,4.26,0,0,0-1.34-1.87,4.06,4.06,0,0,0-5.19.28,4.28,4.28,0,0,0-1.13,2A7.15,7.15,0,0,0,352.38,353.14Z" style="fill: rgb(250, 250, 250); transform-origin: 356.30520582199097px 350.2351303100586px;" id="elsbhysvdjawo" class="animable"></path><path d="M342.48,369.35a3,3,0,0,1,2.24.47,4.46,4.46,0,0,1,1.75,1.86,4.4,4.4,0,0,1-1.68,5.59,4.4,4.4,0,0,1-2.47.58,3,3,0,0,1-2.14-.83,7.17,7.17,0,0,0,2.15.46,4.23,4.23,0,0,0,2.21-.62,4,4,0,0,0,1.49-5,4.27,4.27,0,0,0-1.5-1.74A6.42,6.42,0,0,0,342.48,369.35Z" style="fill: rgb(250, 250, 250); transform-origin: 343.5285813808441px 373.5787229537964px;" id="elc1v18sokbn" class="animable"></path><path d="M358.43,398.23a3,3,0,0,1,.88-2.12,4.34,4.34,0,0,1,7.33,1.29,4.4,4.4,0,0,1,.13,2.54,3.05,3.05,0,0,1-1.21,1.95,6.86,6.86,0,0,0,.85-2,4.33,4.33,0,0,0-.22-2.29,4.06,4.06,0,0,0-4.62-2.37,4.31,4.31,0,0,0-2,1.16A7.33,7.33,0,0,0,358.43,398.23Z" style="fill: rgb(250, 250, 250); transform-origin: 362.66414165496826px 398.25216841697693px;" id="elq1ec4vcnsi8" class="animable"></path><path d="M370,382.34a3,3,0,0,1,2,1.14,4.22,4.22,0,0,1,.34,5.33,4.26,4.26,0,0,1-2.57,1.77,4.35,4.35,0,0,1-2.53-.2,3,3,0,0,1-1.77-1.45,6.86,6.86,0,0,0,1.89,1.1,4.29,4.29,0,0,0,2.3.09,4.07,4.07,0,0,0,2.95-4.28,4.16,4.16,0,0,0-.89-2.12A6.65,6.65,0,0,0,370,382.34Z" style="fill: rgb(250, 250, 250); transform-origin: 369.2995173931122px 386.5110387802124px;" id="el3ywzz9aqhxo" class="animable"></path><path d="M370,351.75a3.08,3.08,0,0,1,2,1.15,4.43,4.43,0,0,1,1.09,2.3,4.4,4.4,0,0,1-3.32,4.8,4.48,4.48,0,0,1-2.54-.2,3,3,0,0,1-1.77-1.46,6.6,6.6,0,0,0,1.9,1.11,4.19,4.19,0,0,0,2.3.08,4,4,0,0,0,2.95-4.27,4.24,4.24,0,0,0-.89-2.12A7.06,7.06,0,0,0,370,351.75Z" style="fill: rgb(250, 250, 250); transform-origin: 369.2909641265869px 355.9240689277649px;" id="el2hpgo4en1jq" class="animable"></path><path d="M376.59,346.13a3.06,3.06,0,0,1-2.18-.71,4.39,4.39,0,0,1-1.54-2,4.4,4.4,0,0,1,2.26-5.38,4.39,4.39,0,0,1,2.53-.32,3,3,0,0,1,2,1.06,6.59,6.59,0,0,0-2.08-.7,4.34,4.34,0,0,0-2.27.39,4.05,4.05,0,0,0-2,4.79,4.23,4.23,0,0,0,1.31,1.89A6.89,6.89,0,0,0,376.59,346.13Z" style="fill: rgb(250, 250, 250); transform-origin: 376.1478621959686px 341.89742374420166px;" id="elfxwyd56760s" class="animable"></path><path d="M365.46,329.27a3,3,0,0,1-2.17-.71,4.39,4.39,0,0,1-1.54-2,4.4,4.4,0,0,1,2.26-5.38,4.38,4.38,0,0,1,2.53-.32,3,3,0,0,1,2,1.06,7.1,7.1,0,0,0-2.08-.69,4.21,4.21,0,0,0-2.27.38,4.05,4.05,0,0,0-2,4.79,4.32,4.32,0,0,0,1.31,1.9A7.18,7.18,0,0,0,365.46,329.27Z" style="fill: rgb(250, 250, 250); transform-origin: 365.02783465385437px 325.03771209716797px;" id="elz7kez076fn" class="animable"></path><path d="M321,348.7a3,3,0,0,1-2.17-.72,4.22,4.22,0,0,1-1.43-5.14,4.29,4.29,0,0,1,2.15-2.26,4.38,4.38,0,0,1,2.53-.32,2.93,2.93,0,0,1,2,1.06,6.59,6.59,0,0,0-2.08-.7,4.34,4.34,0,0,0-2.27.39,4.05,4.05,0,0,0-2,4.79,4.29,4.29,0,0,0,1.31,1.89A7.07,7.07,0,0,0,321,348.7Z" style="fill: rgb(250, 250, 250); transform-origin: 320.5624451637268px 344.4523148536682px;" id="elqxaghl3tgks" class="animable"></path><path d="M365.59,333.13a3,3,0,0,1,2,1.15,4.35,4.35,0,0,1,1.09,2.3,4.41,4.41,0,0,1-3.31,4.8,4.47,4.47,0,0,1-2.54-.2,3,3,0,0,1-1.77-1.46,6.6,6.6,0,0,0,1.9,1.11,4.19,4.19,0,0,0,2.3.08,3.94,3.94,0,0,0,2.25-1.6,4,4,0,0,0,.7-2.67,4.25,4.25,0,0,0-.9-2.12A7.14,7.14,0,0,0,365.59,333.13Z" style="fill: rgb(250, 250, 250); transform-origin: 364.88562989234924px 337.30428171157837px;" id="el7vu4hw8q20w" class="animable"></path><path d="M379.62,350.77a2.47,2.47,0,0,0-.13.35c-.08.25-.2.59-.34,1-.3.93-.72,2.25-1.25,3.94l-4.45,14.27.21-.1-27.18-10-.68-.28.12.22a119.73,119.73,0,0,1,6.36-17.87,50.89,50.89,0,0,1,8.08-13.1,17.86,17.86,0,0,1,4.57-3.69,9.4,9.4,0,0,1,4.22-1.25,6.34,6.34,0,0,1,.86,0l.76.08c.23,0,.45,0,.64.08l.53.14.71.18.24.05-.23-.08-.7-.23-.53-.15c-.19-.05-.41-.06-.65-.1l-.76-.1a6.53,6.53,0,0,0-.88,0,9.4,9.4,0,0,0-4.31,1.21,17.67,17.67,0,0,0-4.67,3.7,50.32,50.32,0,0,0-8.2,13.14,118.06,118.06,0,0,0-6.42,17.92l0,.16.15.06.69.28c10.18,3.81,19.62,7.2,27.21,10l.15.06.05-.16,4.32-14.31c.5-1.7.89-3,1.17-4,.12-.45.22-.79.29-1.05A1.6,1.6,0,0,0,379.62,350.77Z" style="fill: rgb(38, 50, 56); transform-origin: 362.57994079589844px 347.3875484466553px;" id="elpnud6rkok18" class="animable"></path><path d="M328.32,367.16l-5.26,16.47a19,19,0,0,1-14.77,13.23l-35.15,6.6-9.57-.31,9.57-11.84,26.42-9a7.06,7.06,0,0,0,5.33-5.06l10.52-22.88,13.33,8.17Z" style="fill: rgb(255, 190, 157); transform-origin: 296.1549987792969px 378.91502380371094px;" id="elqisbaiek4c" class="animable"></path><path d="M369.46,368.71l-5.73,18.75A19.13,19.13,0,0,1,349,400.86l-35.15,6.68-9.56-.31,3.25-8.16,32.74-12.95a7.13,7.13,0,0,0,5.33-5.13l4.89-18.87Z" style="fill: rgb(255, 190, 157); transform-origin: 336.875px 384.82997131347656px;" id="ele9g94db5mhu" class="animable"></path><polygon points="338.31 407.79 338.01 405.51 311.01 404.45 297.75 371.03 247.26 374.45 264.3 411.55 338.31 407.79" style="fill: rgb(69, 90, 100); transform-origin: 292.78499603271484px 391.2899932861328px;" id="elew8hk6lm1sf" class="animable"></polygon><path d="M277.88,392.71a2.65,2.65,0,1,0,.82-3.65A2.66,2.66,0,0,0,277.88,392.71Z" style="fill: rgb(255, 255, 255); transform-origin: 280.12330055236816px 391.29648208618164px;" id="elcstxpjqix7" class="animable"></path><path d="M353.85,257a20.49,20.49,0,0,1,17.88,13.43c.48,1.4.81,2.85,1.42,4.2a6.22,6.22,0,0,0,2.92,3.22c1,.45,2.12.5,3.14.88a5.73,5.73,0,0,1,3.47,4,7,7,0,0,1-.94,5.29,5.41,5.41,0,0,0-1.18,2.46,6.92,6.92,0,0,0,.37,1.83,5,5,0,0,1-8.21,4.89,7.16,7.16,0,0,1-3,3.81c-1.5.71-3.71.07-4-1.56a4,4,0,0,1-7.52-1.43" style="fill: rgb(38, 50, 56); transform-origin: 368.3479118347168px 279.2966594696045px;" id="elqmgqd0s3pc" class="animable"></path><path d="M329.88,281.6c-3.26-3.81-3.31-9.79-1-14.25s6.7-7.53,11.32-9.35c6.36-2.5,13.95-2.76,19.67,1a16.95,16.95,0,0,1-2.44,29.48" style="fill: #ED270B; transform-origin: 347.31085777282715px 272.31213569641113px;" id="elvz4020s2ztj" class="animable"></path><path d="M367.53,272.31a9.61,9.61,0,0,1-2.34.27,9.78,9.78,0,0,1-2.35.19,6,6,0,0,1,4.69-.46Z" style="fill: rgb(250, 250, 250); transform-origin: 365.18499755859375px 272.4047411978245px;" id="elqeuvdm7l3tq" class="animable"></path><path d="M364.47,264a9.55,9.55,0,0,1-2.1.48c-1.14.25-2,.62-2.1.48a3.33,3.33,0,0,1,2-1A3.23,3.23,0,0,1,364.47,264Z" style="fill: rgb(250, 250, 250); transform-origin: 362.3699951171875px 264.38852965831757px;" id="elpf8tikfrjn" class="animable"></path><path d="M358.5,258.4c0,.15-1.36.33-3,.87a29.81,29.81,0,0,1-2.88,1.06,5.67,5.67,0,0,1,2.72-1.56A5.59,5.59,0,0,1,358.5,258.4Z" style="fill: rgb(250, 250, 250); transform-origin: 355.5600128173828px 259.3237419128418px;" id="el9o1v2hmj7m" class="animable"></path><path d="M348.55,256.19c0,.14-1.24.55-2.54,1.51s-2.09,2-2.22,1.94a4.56,4.56,0,0,1,1.92-2.37A4.44,4.44,0,0,1,348.55,256.19Z" style="fill: rgb(250, 250, 250); transform-origin: 346.16998291015625px 257.91624796390533px;" id="el6ffyrvpj988" class="animable"></path><path d="M337.09,259.86c.08.12-.33.52-.69,1.09-.25.39-.41.77-.54,1l-.23.35v-.34c0-.11,0-.18.06-.2s.11,0,.18.12h-.24a2,2,0,0,1,.34-1.18C336.39,260,337,259.74,337.09,259.86Z" style="fill: rgb(250, 250, 250); transform-origin: 336.3645576238632px 261.0658816099167px;" id="elfqt3j76wq9s" class="animable"></path><path d="M365.43,281.05c0,.14-.9.22-1.95-.1s-1.74-.9-1.67-1,.85.21,1.82.51S365.44,280.91,365.43,281.05Z" style="fill: rgb(250, 250, 250); transform-origin: 363.6175775527954px 280.5517131090164px;" id="elz1j29ma3jw" class="animable"></path><path d="M381.2,273s-.18.66-1.22,1a2.41,2.41,0,0,1-1.89-.21,2.67,2.67,0,0,1-1.26-2.17,3,3,0,0,1,1.44-2.67,3.57,3.57,0,0,1,3.48-.15,4.24,4.24,0,0,1,2.35,3.05,5.08,5.08,0,0,1-1,4,4.63,4.63,0,0,1-3.79,1.65,7,7,0,0,1-3.67-1.18,17.11,17.11,0,0,1-4.34-4.73,30,30,0,0,0-2.6-3.4c-.69-.73-1.13-1.08-1.1-1.11s.13.05.35.21a10.77,10.77,0,0,1,.9.76,24.32,24.32,0,0,1,2.75,3.33,17.64,17.64,0,0,0,4.3,4.54,6.67,6.67,0,0,0,3.42,1.07,4.1,4.1,0,0,0,3.37-1.46,4.6,4.6,0,0,0,.89-3.6,3.76,3.76,0,0,0-2.06-2.72,3.14,3.14,0,0,0-3,.09,2.55,2.55,0,0,0-1.3,2.28,2.39,2.39,0,0,0,1,1.94,2.22,2.22,0,0,0,1.68.26A2.41,2.41,0,0,0,381.2,273Z" style="fill: rgb(38, 50, 56); transform-origin: 375.88715648651123px 272.2900080680847px;" id="elh9725r3eiqu" class="animable"></path><path d="M358.22,267.72a3.53,3.53,0,0,1,3.16,3.58h0l-2,47.73c-.08,5.64-10.3,12.3-16.34,12.18h0c-6.09-.13-4.3-6.6-4.39-12-.15-9-.14-12.32-.15-12.27s-7.7-1.28-9.29-11.33c-.8-5-.55-13.19-.12-19.89.37-6,4.37-13.42,10.37-12.79Z" style="fill: rgb(255, 190, 157); transform-origin: 345.03407859802246px 297.0520210266113px;" id="el8i1clk1d8nj" class="animable"></path><path d="M331.7,282.27a1.28,1.28,0,0,0,1.24,1.3,1.23,1.23,0,0,0,1.33-1.16A1.3,1.3,0,0,0,333,281.1,1.24,1.24,0,0,0,331.7,282.27Z" style="fill: rgb(38, 50, 56); transform-origin: 332.9849228858948px 282.33630442619324px;" id="elk446dsrjya9" class="animable"></path><path d="M330.86,280c.16.17,1.14-.55,2.53-.55s2.4.7,2.55.53-.09-.38-.53-.7a3.59,3.59,0,0,0-2.05-.63,3.42,3.42,0,0,0-2,.65C330.93,279.65,330.78,280,330.86,280Z" style="fill: rgb(38, 50, 56); transform-origin: 333.4120452404022px 279.33795070648193px;" id="elg21gxwjwsac" class="animable"></path><path d="M345.25,282.27a1.29,1.29,0,0,0,1.24,1.3,1.23,1.23,0,0,0,1.33-1.16,1.29,1.29,0,0,0-1.24-1.31A1.25,1.25,0,0,0,345.25,282.27Z" style="fill: rgb(38, 50, 56); transform-origin: 346.5350081920624px 282.3357216119766px;" id="ela570hhu0ijf" class="animable"></path><path d="M344.49,280.28c.16.17,1.14-.55,2.53-.55s2.4.7,2.55.53-.09-.38-.53-.7a3.59,3.59,0,0,0-2.05-.63,3.35,3.35,0,0,0-2,.65C344.56,279.9,344.41,280.21,344.49,280.28Z" style="fill: rgb(38, 50, 56); transform-origin: 347.0420501232147px 279.6179494857788px;" id="elwpl0x4caq3" class="animable"></path><path d="M339.46,290.57a9.08,9.08,0,0,0-2.25-.41c-.36,0-.69-.11-.75-.35a1.78,1.78,0,0,1,.24-1.05l1-2.69c1.46-3.84,2.51-7,2.35-7.06a47.33,47.33,0,0,0-2.91,6.85l-1,2.71A2,2,0,0,0,336,290a.89.89,0,0,0,.59.52,2.26,2.26,0,0,0,.6.08A9,9,0,0,0,339.46,290.57Z" style="fill: rgb(38, 50, 56); transform-origin: 337.9968750476837px 284.83383989334106px;" id="else7aody37k8" class="animable"></path><path d="M338.5,307A25.64,25.64,0,0,0,352,303.39s-3.27,6.9-13.32,6Z" style="fill: rgb(235, 153, 110); transform-origin: 345.25px 306.43049716949463px;" id="elp3w05khaxw" class="animable"></path><path d="M340.05,293.91a2.51,2.51,0,0,1,2.24-.93,2.29,2.29,0,0,1,1.57.85,1.44,1.44,0,0,1,.11,1.65,1.66,1.66,0,0,1-1.82.46,5.35,5.35,0,0,1-1.77-1.06,1.38,1.38,0,0,1-.39-.41.45.45,0,0,1,0-.52" style="fill: rgb(235, 153, 110); transform-origin: 342.0429220199585px 294.50365567207336px;" id="elj1xpdeszzw" class="animable"></path><path d="M343.54,291.53c-.22,0-.23,1.49-1.52,2.56s-2.89.9-2.9,1.11.36.29,1,.31a3.78,3.78,0,0,0,2.42-.84,3.24,3.24,0,0,0,1.17-2.15C343.81,291.89,343.64,291.52,343.54,291.53Z" style="fill: rgb(38, 50, 56); transform-origin: 341.4301598072052px 293.5200318098068px;" id="eltsz1mus9m0k" class="animable"></path><path d="M343.87,277.86c.14.37,1.52.19,3.15.39s2.94.64,3.16.3c.09-.16-.14-.51-.67-.88a5.3,5.3,0,0,0-2.34-.82,5.22,5.22,0,0,0-2.46.29C344.11,277.38,343.81,277.68,343.87,277.86Z" style="fill: rgb(38, 50, 56); transform-origin: 347.0307426452637px 277.74299335479736px;" id="el9pfaq4rhytl" class="animable"></path><path d="M331.37,276c.25.32,1.2,0,2.35,0s2.12.22,2.35-.11c.09-.16-.06-.48-.48-.78a3.44,3.44,0,0,0-3.79.12C331.4,275.53,331.26,275.86,331.37,276Z" style="fill: rgb(38, 50, 56); transform-origin: 333.7144601345062px 275.3705844283104px;" id="elvnvmpxs8bj" class="animable"></path><path d="M360.27,283.79a2.51,2.51,0,0,1,2.63.13,4.66,4.66,0,0,1-2.94,8.65" style="fill: rgb(255, 190, 157); transform-origin: 362.58904504776px 288.0440673828125px;" id="elm9lqbyas3ua" class="animable"></path><path d="M344.47,259.63a20.33,20.33,0,0,0-9.65,3,14,14,0,0,0-6.89,8.19,2.85,2.85,0,0,0,.08,2.26,2.2,2.2,0,0,0,2.75.6A6.54,6.54,0,0,0,333,271.6a4.3,4.3,0,0,0,8.34-.09,3.75,3.75,0,0,0,3.87,3.45,5,5,0,0,0,4.28-3.37,12.7,12.7,0,0,0,1.76,4.9,4.31,4.31,0,0,0,4.55,1.86,9,9,0,0,0,.07,4.49c.53,1.42,2.11,2.57,3.54,2.08s1.93-2.13,2.26-3.57a33.3,33.3,0,0,0,1.08-8.42,12.35,12.35,0,0,0-9.95-12.5,32.49,32.49,0,0,0-8.75-.8" style="fill: rgb(38, 50, 56); transform-origin: 345.24527168273926px 272.31634426116943px;" id="el4r8mfmjy78w" class="animable"></path><path d="M361,289.57c0-.07.39.09.88-.14a1.74,1.74,0,0,0,.86-1.71,1.78,1.78,0,0,0-1.07-1.61c-.51-.21-.88-.11-.9-.19s.34-.31,1-.16a1.79,1.79,0,0,1,1,.61,2.27,2.27,0,0,1,.5,1.32,2,2,0,0,1-1.26,2.09C361.29,290,360.92,289.61,361,289.57Z" style="fill: rgb(235, 153, 110); transform-origin: 362.02608609199524px 287.7785859107971px;" id="eljjkaydlpm7k" class="animable"></path><path d="M364.79,290.09a1.85,1.85,0,0,1,.41.12,5.66,5.66,0,0,1,1.12.5,8.33,8.33,0,0,1,3.28,3.09,6.43,6.43,0,0,1,.9,3,7.1,7.1,0,0,1-.84,3.52,8.32,8.32,0,0,1-2.67,3,7.44,7.44,0,0,1-4.1,1.32,7.77,7.77,0,0,1-6.78-4.24,6.64,6.64,0,0,1-.72-3.56,7.53,7.53,0,0,1,1-3,7.25,7.25,0,0,1,3.33-3,5,5,0,0,1,1.17-.37,1.4,1.4,0,0,1,.43,0c0,.06-.58.13-1.52.59a7.32,7.32,0,0,0-3.95,5.88,6.28,6.28,0,0,0,.71,3.3,7.35,7.35,0,0,0,6.36,3.94,7.53,7.53,0,0,0,6.35-4,6.3,6.3,0,0,0,0-6.15,8.64,8.64,0,0,0-3.06-3.1C365.33,290.34,364.77,290.14,364.79,290.09Z" style="fill: #ED270B; transform-origin: 362.93601274490356px 297.364990234375px;" id="elf1c9087wrg" class="animable"></path></g><g id="freepik--Plant--inject-78" style="transform-origin: 98.71065521240234px 357.69500732421875px;" class="animable"><path d="M93,419.66a3,3,0,0,1,.15-.36c.13-.26.29-.61.5-1.05a26.93,26.93,0,0,0,1.44-4.2A37.07,37.07,0,0,0,95,397.83a88.22,88.22,0,0,0-3-10.89c-1.27-3.86-2.75-8-4-12.4a47.83,47.83,0,0,1-2-14.26c.18-5,1.67-10.08,3.31-15.09s3.34-9.92,3.85-14.86a22.63,22.63,0,0,0-2.73-13.72c-2.17-4-4.91-7.43-7-11a38.16,38.16,0,0,1-4.18-10.56,39.23,39.23,0,0,1-.27-16.34A30.61,30.61,0,0,1,80.79,273a2.36,2.36,0,0,1-.1.39c-.09.27-.2.64-.35,1.1a42.61,42.61,0,0,0-1.06,4.32A39.75,39.75,0,0,0,79.71,295a37.92,37.92,0,0,0,4.19,10.42c2,3.5,4.79,6.91,7,11a23.09,23.09,0,0,1,2.81,14c-.51,5-2.22,9.95-3.85,15s-3.12,10-3.3,14.94a47.75,47.75,0,0,0,1.9,14.11c1.19,4.42,2.65,8.52,3.91,12.4a86.11,86.11,0,0,1,3,10.95,36.7,36.7,0,0,1,0,16.34,24.33,24.33,0,0,1-1.55,4.19l-.54,1A1.46,1.46,0,0,1,93,419.66Z" style="fill: rgb(38, 50, 56); transform-origin: 87.27014350891113px 346.3300018310547px;" id="elkygeec1syze" class="animable"></path><path d="M86.31,309.13s-4.16-13.28,3.3-21.06a.46.46,0,0,1,.79.22C90.79,290.49,91.29,297.17,86.31,309.13Z" style="fill: #ED270B; transform-origin: 87.89220237731934px 298.5254383087158px;" id="el1dtwnmp8vzx" class="animable"></path><path d="M88.8,292.49a12.49,12.49,0,0,1-.28,2.46c-.28,1.68-.6,3.67-1,5.86s-.66,4.17-.93,5.86a14.11,14.11,0,0,1-.44,2.42,10.24,10.24,0,0,1,.07-2.47c.14-1.52.41-3.6.78-5.9s.78-4.35,1.1-5.84A11.35,11.35,0,0,1,88.8,292.49Z" style="fill: rgb(38, 50, 56); transform-origin: 87.4530588388443px 300.78997802734375px;" id="ele399gc4te6d" class="animable"></path><path d="M91.19,340.48S93.73,326.79,104,323.4a.46.46,0,0,1,.59.57C103.87,326.09,101.19,332.23,91.19,340.48Z" style="fill: #ED270B; transform-origin: 97.90017175674438px 331.9273748397827px;" id="elfrw7vrsqyok" class="animable"></path><path d="M101.17,326.93a12,12,0,0,1-1.39,2L96.2,333.7c-1.33,1.78-2.54,3.38-3.57,4.75a13,13,0,0,1-1.52,1.94,10,10,0,0,1,1.22-2.15c.83-1.28,2-3,3.45-4.85s2.73-3.49,3.71-4.65A10.82,10.82,0,0,1,101.17,326.93Z" style="fill: rgb(38, 50, 56); transform-origin: 96.13999938964844px 333.6600036621094px;" id="el8i0vpau4xei" class="animable"></path><path d="M88.42,374.82S86.88,361,95.68,354.76a.46.46,0,0,1,.73.38C96.39,357.37,95.6,364,88.42,374.82Z" style="fill: #ED270B; transform-origin: 92.36328411102295px 364.7462158203125px;" id="ely9ptxvk4xt" class="animable"></path><path d="M94,359a12.3,12.3,0,0,1-.74,2.35c-.59,1.6-1.28,3.49-2,5.57s-1.44,4-2,5.58a13.79,13.79,0,0,1-.89,2.29,10.07,10.07,0,0,1,.54-2.41c.42-1.46,1.09-3.46,1.89-5.64s1.59-4.13,2.2-5.53A11.52,11.52,0,0,1,94,359Z" style="fill: rgb(38, 50, 56); transform-origin: 91.18500900268555px 366.89500427246094px;" id="elyho79qcfaq" class="animable"></path><path d="M96.13,409.36s-1-13.89,8-19.78a.46.46,0,0,1,.72.4C104.71,392.21,103.68,398.83,96.13,409.36Z" style="fill: #ED270B; transform-origin: 100.4737057685852px 399.4295701980591px;" id="el9bll2q18usk" class="animable"></path><path d="M102.31,393.71a11.61,11.61,0,0,1-.83,2.32c-.64,1.59-1.4,3.45-2.24,5.5S97.65,405.44,97,407a13.41,13.41,0,0,1-1,2.26,10.88,10.88,0,0,1,.63-2.39c.48-1.45,1.21-3.42,2.1-5.57s1.73-4.07,2.39-5.44A11.34,11.34,0,0,1,102.31,393.71Z" style="fill: rgb(38, 50, 56); transform-origin: 99.15499496459961px 401.48500061035156px;" id="elkdl2tbualuo" class="animable"></path><path d="M80.33,297.46S68,291,67.75,280.24a.46.46,0,0,1,.72-.39C70.31,281.11,75.39,285.48,80.33,297.46Z" style="fill: #ED270B; transform-origin: 74.03994035720825px 288.61468982696533px;" id="elw8fwvb1qoy" class="animable"></path><path d="M70.31,283.94a12.45,12.45,0,0,1,1.54,1.93l3.48,4.81,3.49,4.8a13.34,13.34,0,0,1,1.41,2,10.46,10.46,0,0,1-1.7-1.8c-1-1.17-2.26-2.84-3.62-4.72s-2.54-3.63-3.36-4.91A10.87,10.87,0,0,1,70.31,283.94Z" style="fill: rgb(38, 50, 56); transform-origin: 75.27000045776367px 290.7099914550781px;" id="el9oxdcthmsfr" class="animable"></path><path d="M93.59,326S80.88,320.31,80,309.58a.46.46,0,0,1,.7-.44C82.58,310.29,87.92,314.34,93.59,326Z" style="fill: #ED270B; transform-origin: 86.79367303848267px 317.5353937149048px;" id="el0vcwyzyc4gfp" class="animable"></path><path d="M82.76,313.11A12.72,12.72,0,0,1,84.42,315l3.76,4.59L92,324.12a13,13,0,0,1,1.52,1.93,10,10,0,0,1-1.8-1.69c-1.05-1.11-2.43-2.69-3.9-4.49s-2.76-3.47-3.65-4.7A11.35,11.35,0,0,1,82.76,313.11Z" style="fill: rgb(38, 50, 56); transform-origin: 88.13999938964844px 319.5799865722656px;" id="el8fine4fd3e7" class="animable"></path><path d="M86.27,357.83S77.55,347,81.64,337a.46.46,0,0,1,.82-.07C83.63,338.83,86.54,344.87,86.27,357.83Z" style="fill: #ED270B; transform-origin: 83.41796636581421px 347.26990699768066px;" id="el0iag1yyvg9i" class="animable"></path><path d="M82.51,341.43a12.31,12.31,0,0,1,.63,2.38c.37,1.68.79,3.64,1.26,5.81s.91,4.12,1.28,5.79a13.58,13.58,0,0,1,.48,2.42,9.7,9.7,0,0,1-.84-2.33c-.42-1.46-.94-3.5-1.43-5.77s-.87-4.34-1.11-5.85A11,11,0,0,1,82.51,341.43Z" style="fill: rgb(38, 50, 56); transform-origin: 84.33498203754425px 349.62998962402344px;" id="el2elcliw6ock" class="animable"></path><path d="M94.92,395.29s-12.61-5.9-13.33-16.65a.46.46,0,0,1,.7-.43C84.18,379.4,89.45,383.54,94.92,395.29Z" style="fill: #ED270B; transform-origin: 88.25418424606323px 386.7157287597656px;" id="elh905uwrr59r" class="animable"></path><path d="M84.31,382.23a11.17,11.17,0,0,1,1.62,1.86l3.69,4.65,3.7,4.64a13.29,13.29,0,0,1,1.49,2A10.28,10.28,0,0,1,93,393.62c-1-1.13-2.39-2.73-3.83-4.56s-2.69-3.51-3.57-4.75A11.43,11.43,0,0,1,84.31,382.23Z" style="fill: rgb(38, 50, 56); transform-origin: 89.55999755859375px 388.8050079345703px;" id="eli4tyz2iro0q" class="animable"></path><path d="M120,340.55a1,1,0,0,1,0,.31l0,.89c0,.83-.08,2-.15,3.37-.16,3-.39,7.11-.66,12.06h0v0c-.9,5-3.47,10.62-6.91,16-2.53,4-5.18,7.62-7.47,11a78,78,0,0,0-5.59,9.25,39.11,39.11,0,0,0-2.62,6.79c-.22.83-.39,1.48-.48,1.92a3.12,3.12,0,0,1-.19.67,3.25,3.25,0,0,1,.08-.69c.07-.45.2-1.11.39-1.95a35.65,35.65,0,0,1,2.49-6.9,72.7,72.7,0,0,1,5.53-9.36c2.27-3.4,4.9-7,7.42-11,3.43-5.39,6-10.89,6.91-15.85v0c.35-4.95.64-9.08.84-12,.12-1.41.21-2.54.28-3.37,0-.36.06-.65.09-.89A1,1,0,0,1,120,340.55Z" style="fill: rgb(38, 50, 56); transform-origin: 107.97103500366211px 371.6800231933594px;" id="eljpijqbpjizn" class="animable"></path><path d="M112.53,372.21s5.34-12.85-1.38-21.28a.46.46,0,0,0-.81.16C109.75,353.24,108.65,359.85,112.53,372.21Z" style="fill: #ED270B; transform-origin: 112.13710975646973px 361.479528427124px;" id="eli7dn7mqtdsp" class="animable"></path><path d="M111.56,355.42a11.38,11.38,0,0,1,.42,2.43c.19,1.51.4,3.6.57,5.92s.24,4.42.24,5.94a9.92,9.92,0,0,1-.15,2.47,13.86,13.86,0,0,1-.22-2.45c-.11-1.71-.25-3.71-.39-5.92s-.3-4.22-.42-5.93A12.3,12.3,0,0,1,111.56,355.42Z" style="fill: rgb(38, 50, 56); transform-origin: 112.16566973924637px 363.8000183105469px;" id="el0xsekohcz8l" class="animable"></path><g id="eln5wdajcliia"><g style="opacity: 0.30000000000000004; transform-origin: 112.13710975646973px 361.479528427124px;" class="animable" id="elaqi1zudd91r"><path d="M112.53,372.21s5.34-12.85-1.38-21.28a.46.46,0,0,0-.81.16C109.75,353.24,108.65,359.85,112.53,372.21Z" id="eleurlc2v9zvn" style="transform-origin: 112.13710975646973px 361.479528427124px;" class="animable"></path></g></g><path d="M96,403.2s4.28-13.25-3.1-21.1a.47.47,0,0,0-.8.22C91.68,384.51,91.12,391.19,96,403.2Z" style="fill: #ED270B; transform-origin: 94.53457379341125px 392.576509475708px;" id="elzxkkym8kcjq" class="animable"></path><path d="M93.65,386.53a11.15,11.15,0,0,1,.62,2.39c.31,1.49.69,3.56,1,5.86s.6,4.39.72,5.9a10.19,10.19,0,0,1,0,2.48,14.39,14.39,0,0,1-.41-2.43c-.25-1.69-.55-3.68-.88-5.87s-.63-4.18-.89-5.87A12.26,12.26,0,0,1,93.65,386.53Z" style="fill: rgb(38, 50, 56); transform-origin: 94.85395133495331px 394.8450012207031px;" id="elz0j95okq109" class="animable"></path><g id="el4mj28b9ocwb"><g style="opacity: 0.30000000000000004; transform-origin: 94.53457379341125px 392.576509475708px;" class="animable" id="elvwy1far6iqj"><path d="M96,403.2s4.28-13.25-3.1-21.1a.47.47,0,0,0-.8.22C91.68,384.51,91.12,391.19,96,403.2Z" id="el6fq4oe2hvup" style="transform-origin: 94.53457379341125px 392.576509475708px;" class="animable"></path></g></g><path d="M119.33,356.5s11.41-8,10.26-18.7a.47.47,0,0,0-.77-.3C127.17,339,122.69,344,119.33,356.5Z" style="fill: #ED270B; transform-origin: 124.5007176399231px 346.94436836242676px;" id="elirc7pz8vn5p" class="animable"></path><g id="el691j5p7mst3"><g style="opacity: 0.30000000000000004; transform-origin: 124.5007176399231px 346.94436836242676px;" class="animable" id="el14r1pd4bk9u"><path d="M119.33,356.5s11.41-8,10.26-18.7a.47.47,0,0,0-.77-.3C127.17,339,122.69,344,119.33,356.5Z" id="ellt7owl8wg" style="transform-origin: 124.5007176399231px 346.94436836242676px;" class="animable"></path></g></g><path d="M127.52,341.8a10.15,10.15,0,0,1-.94,2.28c-.66,1.38-1.6,3.26-2.7,5.3s-2.17,3.87-3,5.15a9.72,9.72,0,0,1-1.45,2,14.09,14.09,0,0,1,1.14-2.19l2.84-5.2c1.06-2,2-3.72,2.83-5.22A12.43,12.43,0,0,1,127.52,341.8Z" style="fill: rgb(38, 50, 56); transform-origin: 123.47499084472656px 349.16497802734375px;" id="elrika6uuk9l" class="animable"></path><path d="M100.58,390.06s13.76-2.14,17.45-12.27a.46.46,0,0,0-.56-.6C115.33,377.8,109.11,380.31,100.58,390.06Z" style="fill: #ED270B; transform-origin: 109.31902694702148px 383.6159029006958px;" id="elh5y6f3jpihu" class="animable"></path><g id="elhrdwn7dn36"><g style="opacity: 0.30000000000000004; transform-origin: 109.31902694702148px 383.6159029006958px;" class="animable" id="el1a68jn43uts"><path d="M100.58,390.06s13.76-2.14,17.45-12.27a.46.46,0,0,0-.56-.6C115.33,377.8,109.11,380.31,100.58,390.06Z" id="el3hlz2slj2wo" style="transform-origin: 109.31902694702148px 383.6159029006958px;" class="animable"></path></g></g><path d="M114.41,380.48a10.79,10.79,0,0,1-1.85,1.62c-1.19.95-2.87,2.23-4.76,3.57s-3.65,2.52-5,3.31a9.86,9.86,0,0,1-2.18,1.16,13.79,13.79,0,0,1,2-1.46l4.85-3.43,4.84-3.44A11.92,11.92,0,0,1,114.41,380.48Z" style="fill: rgb(38, 50, 56); transform-origin: 107.51499938964844px 385.30999755859375px;" id="el0ajlxzbl2dzs" class="animable"></path><polygon points="87.46 415.38 83.45 442.39 108.46 442.39 105.21 415.38 87.46 415.38" style="fill: rgb(69, 90, 100); transform-origin: 95.95499801635742px 428.885009765625px;" id="elnapx4lmys9" class="animable"></polygon><path d="M106.21,423.75a99.12,99.12,0,0,1-10.08.26,99.12,99.12,0,0,1-10.08-.26,95.75,95.75,0,0,1,10.08-.26A95.75,95.75,0,0,1,106.21,423.75Z" style="fill: rgb(38, 50, 56); transform-origin: 96.13000106811523px 423.74828347563744px;" id="el3aaye4vygdw" class="animable"></path><path d="M106.71,425.9c0,.14-4.66.26-10.41.26s-10.42-.12-10.42-.26a102.27,102.27,0,0,1,10.42-.26A102.14,102.14,0,0,1,106.71,425.9Z" style="fill: rgb(38, 50, 56); transform-origin: 96.29500198364258px 425.8826901912689px;" id="el7g1nx74j1aa" class="animable"></path></g><defs><clipPath id="freepik--clip-path--inject-78"><path d="M241.45,230.78a7.6,7.6,0,1,1-13,0h-8.81a7.59,7.59,0,1,1-14.12,3.86,7.46,7.46,0,0,1,1.07-3.86h-8.81a7.59,7.59,0,1,1-14.12,3.86,7.46,7.46,0,0,1,1.07-3.86h-8.81a7.59,7.59,0,1,1-13.06,0H154a7.59,7.59,0,1,1-13.06,0h-8.8a7.59,7.59,0,1,1-13.06,0h-5.51v157H244.36v-157Z" style="fill:none"></path></clipPath></defs><defs>     <filter id="active" height="200%">         <feMorphology in="SourceAlpha" result="DILATED" operator="dilate" radius="2"></feMorphology>                <feFlood flood-color="#32DFEC" flood-opacity="1" result="PINK"></feFlood>        <feComposite in="PINK" in2="DILATED" operator="in" result="OUTLINE"></feComposite>        <feMerge>            <feMergeNode in="OUTLINE"></feMergeNode>            <feMergeNode in="SourceGraphic"></feMergeNode>        </feMerge>    </filter>    <filter id="hover" height="200%">        <feMorphology in="SourceAlpha" result="DILATED" operator="dilate" radius="2"></feMorphology>                <feFlood flood-color="#ff0000" flood-opacity="0.5" result="PINK"></feFlood>        <feComposite in="PINK" in2="DILATED" operator="in" result="OUTLINE"></feComposite>        <feMerge>            <feMergeNode in="OUTLINE"></feMergeNode>            <feMergeNode in="SourceGraphic"></feMergeNode>        </feMerge>            <feColorMatrix type="matrix" values="0   0   0   0   0                0   1   0   0   0                0   0   0   0   0                0   0   0   1   0 "></feColorMatrix>    </filter></defs></svg>